<svg width="54" height="54" viewBox="0 0 54 54" fill="none" xmlns="http://www.w3.org/2000/svg">
<path d="M28.825 31.0633C28.825 31.0633 29.4618 31.1205 29.8052 30.6984L30.4706 29.8613C30.7925 29.4463 31.5724 29.1816 32.3308 29.6037C32.7529 29.8398 33.5185 30.312 33.9907 30.6626C34.4987 31.0347 35.5289 31.8932 35.5361 31.9004C36.0298 32.3153 36.1442 32.9235 35.808 33.5746C35.808 33.5746 35.808 33.5817 35.808 33.5889C35.4645 34.197 34.9995 34.7694 34.42 35.2988C34.4128 35.2988 34.4128 35.306 34.4056 35.306C33.9263 35.7067 33.4541 35.9356 32.9962 35.9857C32.9389 36 32.8745 36 32.7887 36C32.5884 36 32.388 35.9714 32.1877 35.907L32.1734 35.8855C31.4579 35.6852 30.2703 35.1844 28.2956 34.0897C27.0077 33.3814 25.9417 32.6588 25.033 31.9361C24.5537 31.557 24.0672 31.1348 23.5663 30.634C23.552 30.6197 23.5306 30.5982 23.5162 30.5839C23.5019 30.5696 23.4805 30.5481 23.4662 30.5338C23.4519 30.5195 23.4304 30.4981 23.4161 30.4838C23.4018 30.4694 23.3803 30.448 23.366 30.4337C22.8723 29.9328 22.443 29.4463 22.0638 28.967C21.3412 28.0655 20.6186 26.9923 19.9103 25.7044C18.8156 23.7226 18.3148 22.5349 18.1145 21.8266L18.093 21.8123C18.0286 21.612 18 21.4116 18 21.2113C18 21.1255 18 21.0611 18.0143 21.0038C18.0715 20.5388 18.3005 20.0737 18.694 19.5944C18.694 19.5872 18.7012 19.5872 18.7012 19.58C19.2306 18.9934 19.803 18.5355 20.4111 18.192C20.4111 18.192 20.4183 18.192 20.4254 18.192C21.0694 17.8558 21.6775 17.9702 22.0996 18.4639C22.0996 18.4639 22.9653 19.5013 23.3374 20.0093C23.688 20.4887 24.1602 21.2471 24.3963 21.6692C24.8184 22.4276 24.5537 23.2075 24.1387 23.5294L23.3016 24.1948C22.8795 24.5382 22.9367 25.175 22.9367 25.175C22.9367 25.175 24.1745 29.8828 28.825 31.0633Z" fill="#FF0100"/>
<circle cx="27" cy="27" r="26" stroke="black" stroke-width="2"/>
</svg>
