<svg width="353" height="48" viewBox="0 0 353 48" fill="none" xmlns="http://www.w3.org/2000/svg">
<path fill-rule="evenodd" clip-rule="evenodd" d="M277.541 19.3342C277.68 18.8706 277.541 18.5299 276.879 18.5299H274.691C274.135 18.5299 273.879 18.8242 273.74 19.1488C273.74 19.1488 272.627 21.8608 271.051 23.6225C270.541 24.1325 270.309 24.2945 270.031 24.2945C269.892 24.2945 269.69 24.1325 269.69 23.6689V19.3342C269.69 18.7778 269.529 18.5299 269.065 18.5299H265.627C265.279 18.5299 265.07 18.7881 265.07 19.0328C265.07 19.5603 265.858 19.6819 265.939 21.1654V24.3875C265.939 25.0939 265.812 25.2221 265.534 25.2221C264.792 25.2221 262.988 22.4977 261.917 19.3806C261.708 18.7747 261.497 18.5299 260.938 18.5299H258.75C258.125 18.5299 258 18.8242 258 19.1488C258 19.7283 258.742 22.6027 261.454 26.4042C263.262 29.0002 265.809 30.4077 268.127 30.4077C269.518 30.4077 269.69 30.0951 269.69 29.5567V27.5945C269.69 26.9694 269.822 26.8447 270.262 26.8447C270.587 26.8447 271.143 27.0069 272.441 28.2586C273.925 29.7419 274.169 30.4077 275.004 30.4077H277.192C277.817 30.4077 278.13 30.0951 277.949 29.4782C277.752 28.8634 277.044 27.9716 276.104 26.9142C275.594 26.3114 274.829 25.6624 274.597 25.3379C274.273 24.9206 274.365 24.7353 274.597 24.3646C274.597 24.3646 277.263 20.6093 277.541 19.3343V19.3342Z" fill="black" fill-opacity="0.3"/>
<path d="M325.876 24C325.876 22.2742 327.274 20.8747 329 20.8747C330.726 20.8747 332.125 22.2742 332.125 24C332.125 25.7258 330.726 27.1252 329 27.1252C327.274 27.1252 325.876 25.7258 325.876 24ZM324.186 24C324.186 26.6587 326.341 28.8139 329 28.8139C331.659 28.8139 333.814 26.6587 333.814 24C333.814 21.3412 331.659 19.186 329 19.186C326.341 19.186 324.186 21.3412 324.186 24ZM332.88 18.9952C332.879 19.2177 332.945 19.4352 333.069 19.6203C333.192 19.8053 333.368 19.9496 333.574 20.0348C333.779 20.12 334.005 20.1424 334.224 20.0991C334.442 20.0558 334.642 19.9487 334.8 19.7914C334.957 19.6342 335.064 19.4338 335.108 19.2155C335.151 18.9973 335.129 18.7711 335.044 18.5655C334.959 18.3599 334.815 18.1842 334.63 18.0605C334.445 17.9368 334.227 17.8707 334.005 17.8706H334.005C333.706 17.8708 333.42 17.9893 333.209 18.2001C332.998 18.411 332.88 18.6969 332.88 18.9952ZM325.213 31.631C324.298 31.5894 323.802 31.4371 323.472 31.3085C323.034 31.1381 322.722 30.9352 322.393 30.6073C322.065 30.2794 321.862 29.9674 321.692 29.5297C321.563 29.1997 321.411 28.7027 321.369 27.7887C321.324 26.8005 321.315 26.5036 321.315 24.0001C321.315 21.4965 321.325 21.2005 321.369 20.2114C321.411 19.2974 321.564 18.8014 321.692 18.4705C321.862 18.0328 322.065 17.7205 322.393 17.3921C322.721 17.0638 323.033 16.8605 323.472 16.6909C323.802 16.5622 324.298 16.4099 325.213 16.3684C326.201 16.3229 326.498 16.3138 329 16.3138C331.502 16.3138 331.8 16.3237 332.789 16.3684C333.703 16.41 334.199 16.5634 334.53 16.6909C334.967 16.8605 335.28 17.0642 335.608 17.3921C335.936 17.72 336.139 18.0328 336.309 18.4705C336.438 18.8005 336.59 19.2974 336.632 20.2114C336.677 21.2005 336.686 21.4965 336.686 24.0001C336.686 26.5036 336.677 26.7997 336.632 27.7887C336.59 28.7027 336.437 29.1995 336.309 29.5297C336.139 29.9674 335.936 30.2797 335.608 30.6073C335.28 30.9349 334.967 31.1381 334.53 31.3085C334.2 31.4372 333.703 31.5895 332.789 31.631C331.8 31.6765 331.504 31.6855 329 31.6855C326.496 31.6855 326.2 31.6765 325.213 31.631ZM325.135 14.6818C324.137 14.7272 323.455 14.8855 322.859 15.1172C322.242 15.3565 321.72 15.6776 321.199 16.1986C320.677 16.7195 320.357 17.2425 320.117 17.8593C319.885 18.4552 319.727 19.1368 319.682 20.1349C319.636 21.1345 319.625 21.4541 319.625 24C319.625 26.5459 319.636 26.8655 319.682 27.8651C319.727 28.8632 319.885 29.5448 320.117 30.1407C320.357 30.7571 320.677 31.2807 321.199 31.8014C321.72 32.3221 322.242 32.6428 322.859 32.8828C323.456 33.1145 324.137 33.2728 325.135 33.3182C326.135 33.3637 326.454 33.375 329 33.375C331.546 33.375 331.866 33.3644 332.865 33.3182C333.863 33.2728 334.545 33.1145 335.141 32.8828C335.757 32.6428 336.28 32.3224 336.801 31.8014C337.323 31.2805 337.643 30.7571 337.883 30.1407C338.115 29.5448 338.274 28.8631 338.318 27.8651C338.364 26.8648 338.374 26.5459 338.374 24C338.374 21.4541 338.364 21.1345 338.318 20.1349C338.273 19.1368 338.115 18.4549 337.883 17.8593C337.643 17.2429 337.322 16.7204 336.801 16.1986C336.28 15.6768 335.757 15.3565 335.141 15.1172C334.545 14.8855 333.863 14.7265 332.866 14.6818C331.866 14.6363 331.547 14.625 329.001 14.625C326.455 14.625 326.135 14.6356 325.135 14.6818Z" fill="black" fill-opacity="0.3"/>
<path d="M213.72 17.2572C212.111 15.6018 209.888 14.7031 207.618 14.7031C202.794 14.7031 198.915 18.6288 198.963 23.4058C198.963 24.9193 199.388 26.3856 200.098 27.7099L198.868 32.2031L203.456 31.0207C204.733 31.7302 206.152 32.0612 207.571 32.0612C212.348 32.0612 216.226 28.1356 216.226 23.3585C216.226 21.041 215.328 18.8653 213.72 17.2572ZM207.618 30.595C206.341 30.595 205.064 30.2639 203.976 29.6018L203.692 29.4599L200.949 30.1693L201.659 27.4734L201.47 27.1896C199.388 23.8315 200.382 19.3856 203.787 17.3045C207.192 15.2234 211.591 16.2166 213.672 19.622C215.753 23.0274 214.76 27.4261 211.355 29.5072C210.267 30.2166 208.942 30.595 207.618 30.595ZM211.78 25.345L211.26 25.1085C211.26 25.1085 210.503 24.7774 210.03 24.541C209.983 24.541 209.936 24.4937 209.888 24.4937C209.747 24.4937 209.652 24.541 209.557 24.5883C209.557 24.5883 209.51 24.6356 208.848 25.3923C208.801 25.4869 208.706 25.5342 208.611 25.5342H208.564C208.517 25.5342 208.422 25.4869 208.375 25.4396L208.138 25.345C207.618 25.1085 207.145 24.8247 206.767 24.4464C206.672 24.3518 206.53 24.2572 206.436 24.1626C206.105 23.8315 205.774 23.4531 205.537 23.0274L205.49 22.9329C205.442 22.8856 205.442 22.8383 205.395 22.7437C205.395 22.6491 205.395 22.5545 205.442 22.5072C205.442 22.5072 205.632 22.2707 205.774 22.1288C205.868 22.0342 205.915 21.8923 206.01 21.7977C206.105 21.6558 206.152 21.4666 206.105 21.3247C206.057 21.0883 205.49 19.8112 205.348 19.5274C205.253 19.3856 205.159 19.3383 205.017 19.291H204.875C204.78 19.291 204.638 19.291 204.497 19.291C204.402 19.291 204.307 19.3383 204.213 19.3383L204.165 19.3856C204.071 19.4329 203.976 19.5274 203.882 19.5747C203.787 19.6693 203.74 19.7639 203.645 19.8585C203.314 20.2842 203.125 20.8045 203.125 21.3247C203.125 21.7031 203.22 22.0815 203.361 22.4126L203.409 22.5545C203.834 23.4531 204.402 24.2572 205.159 24.9666L205.348 25.1558C205.49 25.2977 205.632 25.3923 205.726 25.5342C206.72 26.3856 207.855 27.0004 209.132 27.3315C209.274 27.3788 209.463 27.3788 209.605 27.4261C209.747 27.4261 209.936 27.4261 210.078 27.4261C210.314 27.4261 210.598 27.3315 210.787 27.2369C210.929 27.1423 211.024 27.1423 211.118 27.0477L211.213 26.9531C211.307 26.8585 211.402 26.8112 211.497 26.7166C211.591 26.622 211.686 26.5274 211.733 26.4329C211.828 26.2437 211.875 26.0072 211.922 25.7707C211.922 25.6761 211.922 25.5342 211.922 25.4396C211.922 25.4396 211.875 25.3923 211.78 25.345Z" fill="black" fill-opacity="0.3"/>
<path d="M153.346 16.6153C152.85 16.1592 150.841 14.6986 146.364 14.6786C146.364 14.6786 141.086 14.3585 138.513 16.7194C137.08 18.1519 136.576 20.2447 136.524 22.8456C136.472 25.4426 136.404 30.3123 141.098 31.6328H141.102L141.098 33.6456C141.098 33.6456 141.07 34.4619 141.606 34.6259C142.254 34.826 142.638 34.2058 143.259 33.5375C143.599 33.1694 144.067 32.6332 144.423 32.221C147.632 32.4891 150.101 31.8729 150.381 31.7809C151.029 31.5688 154.699 31.1006 155.295 26.2309C155.911 21.221 154.995 18.0479 153.346 16.6153ZM153.89 25.8787C153.386 29.9442 150.413 30.2003 149.865 30.3764C149.633 30.4524 147.464 30.9926 144.735 30.8125C144.735 30.8125 142.702 33.2654 142.07 33.9017C141.97 34.0017 141.854 34.0417 141.778 34.0217C141.67 33.9937 141.638 33.8657 141.642 33.6776C141.642 33.4055 141.658 30.3284 141.658 30.3284C141.654 30.3284 141.654 30.3284 141.658 30.3284C137.685 29.228 137.917 25.0824 137.961 22.9136C138.005 20.7449 138.413 18.9642 139.625 17.7678C141.798 15.799 146.284 16.0911 146.284 16.0911C150.069 16.1072 151.882 17.2476 152.302 17.6277C153.698 18.8281 154.411 21.6892 153.89 25.8787Z" fill="black" fill-opacity="0.3"/>
<path d="M148.208 22.9897C148.076 22.9897 147.964 22.8856 147.956 22.7496C147.912 21.8893 147.508 21.4691 146.684 21.4251C146.544 21.4171 146.436 21.2971 146.444 21.157C146.452 21.017 146.572 20.9089 146.712 20.9169C147.8 20.9769 148.408 21.6012 148.465 22.7216C148.473 22.8616 148.364 22.9817 148.224 22.9857C148.216 22.9897 148.212 22.9897 148.208 22.9897Z" fill="black" fill-opacity="0.3"/>
<path d="M149.505 23.4219H149.501C149.361 23.4179 149.249 23.3019 149.253 23.1618C149.273 22.2975 149.025 21.5973 148.496 21.021C147.972 20.4448 147.248 20.1327 146.292 20.0647C146.152 20.0527 146.048 19.9326 146.06 19.7926C146.072 19.6525 146.192 19.5485 146.332 19.5605C147.412 19.6405 148.264 20.0167 148.873 20.6809C149.485 21.3492 149.781 22.1855 149.761 23.1738C149.757 23.3139 149.641 23.4219 149.505 23.4219Z" fill="black" fill-opacity="0.3"/>
<path d="M150.833 23.942C150.693 23.942 150.581 23.83 150.581 23.6899C150.569 22.1414 150.125 20.9609 149.221 20.0766C148.328 19.2043 147.196 18.7601 145.863 18.7481C145.723 18.7481 145.611 18.6321 145.611 18.492C145.611 18.352 145.727 18.2399 145.863 18.2399C147.332 18.2519 148.58 18.7441 149.569 19.7125C150.561 20.6808 151.069 22.0173 151.085 23.6819C151.089 23.826 150.977 23.942 150.833 23.942C150.837 23.942 150.837 23.942 150.833 23.942Z" fill="black" fill-opacity="0.3"/>
<path d="M146.744 26.1227C146.744 26.1227 147.1 26.1548 147.292 25.9187L147.664 25.4505C147.844 25.2184 148.28 25.0704 148.704 25.3064C148.94 25.4385 149.369 25.7026 149.633 25.8987C149.917 26.1067 150.493 26.5869 150.497 26.5909C150.773 26.823 150.837 27.1631 150.649 27.5273C150.649 27.5273 150.649 27.5313 150.649 27.5353C150.457 27.8754 150.197 28.1955 149.873 28.4916C149.869 28.4916 149.869 28.4956 149.865 28.4956C149.597 28.7197 149.333 28.8477 149.077 28.8758C149.045 28.8838 149.008 28.8838 148.96 28.8838C148.848 28.8838 148.736 28.8678 148.624 28.8317L148.616 28.8197C148.216 28.7077 147.552 28.4276 146.448 27.8154C145.727 27.4192 145.131 27.0151 144.623 26.6109C144.355 26.3988 144.083 26.1628 143.803 25.8827C143.795 25.8747 143.783 25.8627 143.775 25.8546C143.767 25.8466 143.755 25.8346 143.747 25.8266C143.739 25.8186 143.727 25.8066 143.719 25.7986C143.711 25.7906 143.699 25.7786 143.691 25.7706C143.414 25.4905 143.174 25.2184 142.962 24.9503C142.558 24.4461 142.154 23.8459 141.758 23.1257C141.146 22.0172 140.866 21.353 140.753 20.9569L140.741 20.9489C140.705 20.8368 140.689 20.7248 140.689 20.6127C140.689 20.5647 140.689 20.5287 140.697 20.4967C140.729 20.2366 140.858 19.9765 141.078 19.7084C141.078 19.7044 141.082 19.7044 141.082 19.7004C141.378 19.3723 141.698 19.1162 142.038 18.9241C142.038 18.9241 142.042 18.9241 142.046 18.9241C142.406 18.736 142.746 18.8001 142.982 19.0762C142.982 19.0762 143.466 19.6564 143.675 19.9405C143.871 20.2086 144.135 20.6327 144.267 20.8688C144.503 21.293 144.355 21.7291 144.123 21.9092L143.655 22.2813C143.418 22.4734 143.45 22.8295 143.45 22.8295C143.45 22.8295 144.143 25.4625 146.744 26.1227Z" fill="black" fill-opacity="0.3"/>
<path fill-rule="evenodd" clip-rule="evenodd" d="M88.3342 31.4277C89.3826 31.8864 89.7758 30.9253 89.7758 30.9253L92.5498 16.9897C92.528 16.0505 91.2611 16.6184 91.2611 16.6184L75.731 22.7125C75.731 22.7125 74.9884 22.9746 75.0539 23.4333C75.1194 23.892 75.7092 24.1104 75.7092 24.1104L79.619 25.421C79.619 25.421 80.7985 29.2871 81.0388 30.0297C81.2572 30.7505 81.4538 30.7724 81.4538 30.7724C81.6722 30.8598 81.8688 30.7069 81.8688 30.7069L84.4025 28.4134L88.3342 31.4277ZM89.0113 19.4579C89.0113 19.4579 89.5574 19.1303 89.5355 19.4579C89.5355 19.4579 89.6229 19.5016 89.3389 19.8074C89.0768 20.0695 82.8954 25.6175 82.0654 26.3602C81.9998 26.4038 81.9562 26.4694 81.9562 26.5567L81.7159 28.6099C81.6722 28.8284 81.3883 28.8502 81.3227 28.6536L80.2961 25.2899C80.2524 25.1588 80.2961 25.0059 80.4272 24.9185L89.0113 19.4579Z" fill="black" fill-opacity="0.3"/>
<path d="M25.6222 27.6118C25.6222 27.6118 26.1882 27.6627 26.4935 27.2875L27.085 26.5434C27.3711 26.1745 28.0644 25.9392 28.7385 26.3144C29.1137 26.5243 29.7942 26.944 30.2139 27.2557C30.6655 27.5864 31.5813 28.3495 31.5876 28.3559C32.0264 28.7248 32.1282 29.2653 31.8293 29.8441C31.8293 29.8441 31.8293 29.8504 31.8293 29.8568C31.524 30.3974 31.1107 30.9061 30.5955 31.3767C30.5892 31.3767 30.5892 31.3831 30.5828 31.3831C30.1567 31.7393 29.737 31.9428 29.3299 31.9873C29.2791 32 29.2218 32 29.1455 32C28.9674 32 28.7894 31.9746 28.6113 31.9173L28.5986 31.8982C27.9626 31.7202 26.9069 31.275 25.1516 30.302C24.0069 29.6723 23.0593 29.03 22.2516 28.3877C21.8255 28.0506 21.393 27.6754 20.9478 27.2302C20.9351 27.2175 20.916 27.1984 20.9033 27.1857C20.8906 27.173 20.8715 27.1539 20.8588 27.1412C20.8461 27.1285 20.827 27.1094 20.8143 27.0967C20.8016 27.084 20.7825 27.0649 20.7698 27.0522C20.331 26.607 19.9494 26.1745 19.6123 25.7484C18.97 24.9471 18.3277 23.9931 17.698 22.8484C16.725 21.0868 16.2798 20.031 16.1018 19.4014L16.0827 19.3887C16.0254 19.2106 16 19.0326 16 18.8545C16 18.7782 16 18.7209 16.0127 18.6701C16.0636 18.2567 16.2671 17.8433 16.6169 17.4172C16.6169 17.4108 16.6233 17.4108 16.6233 17.4045C17.0939 16.883 17.6026 16.476 18.1432 16.1707C18.1432 16.1707 18.1496 16.1707 18.1559 16.1707C18.7283 15.8718 19.2689 15.9736 19.6441 16.4124C19.6441 16.4124 20.4136 17.3345 20.7443 17.7861C21.056 18.2122 21.4757 18.8863 21.6856 19.2615C22.0608 19.9356 21.8255 20.6289 21.4566 20.915L20.7125 21.5065C20.3373 21.8118 20.3882 22.3778 20.3882 22.3778C20.3882 22.3778 21.4884 26.5625 25.6222 27.6118Z" fill="black" fill-opacity="0.3"/>
</svg>
